<?xml version="1.0" standalone="no"?>
<!DOCTYPE svg PUBLIC "-//W3C//DTD SVG 20010904//EN"
 "http://www.w3.org/TR/2001/REC-SVG-20010904/DTD/svg10.dtd">
<svg version="1.0" xmlns="http://www.w3.org/2000/svg"
 width="686.000000pt" height="686.000000pt" viewBox="0 0 686.000000 686.000000"
 preserveAspectRatio="xMidYMid meet">
<metadata>
Created by potrace 1.11, written by Peter Selinger 2001-2013
</metadata>
<g transform="translate(0.000000,686.000000) scale(0.100000,-0.100000)"
fill="#000000" stroke="none">
<path d="M3095 5351 c-45 -20 -105 -81 -123 -126 -6 -17 -20 -85 -30 -153 -11
-67 -21 -125 -24 -127 -3 -3 -28 0 -56 6 -99 21 -216 -38 -255 -128 -9 -21
-60 -247 -113 -503 -71 -347 -106 -493 -136 -575 -76 -209 -127 -444 -148
-683 -13 -142 -44 -261 -96 -365 -47 -92 -82 -142 -253 -362 -149 -191 -162
-218 -123 -263 22 -27 1416 -582 1460 -582 36 0 69 27 76 62 37 194 68 286
140 408 l44 75 218 69 c304 95 428 141 744 276 410 176 524 228 537 247 22 29
15 71 -27 157 -30 64 -53 96 -102 141 -140 130 -240 146 -583 97 -110 -16
-201 -28 -203 -27 -1 2 154 348 345 771 300 665 347 777 351 827 5 69 -16 132
-62 185 -33 37 -116 82 -153 82 -13 0 -23 2 -23 4 0 2 11 28 25 58 49 105 24
233 -60 307 -53 46 -99 63 -171 63 -76 1 -137 -26 -184 -78 -19 -21 -204 -319
-410 -661 -206 -342 -381 -622 -388 -623 -7 0 -15 6 -18 14 -3 7 32 276 76
597 51 367 79 598 75 622 -12 81 -76 162 -151 193 -48 20 -151 17 -199 -5z"/>
<path d="M31 3874 c0 -11 3 -14 6 -6 3 7 2 16 -1 19 -3 4 -6 -2 -5 -13z"/>
<path d="M6823 3855 c0 -22 2 -30 4 -17 2 12 2 30 0 40 -3 9 -5 -1 -4 -23z"/>
<path d="M15 3695 c-5 -66 -9 -208 -8 -315 7 -1120 584 -2178 1528 -2804 390
-259 800 -426 1265 -515 392 -75 868 -75 1260 0 916 175 1712 702 2224 1474
313 471 495 982 557 1560 14 126 14 533 1 645 -9 72 -9 70 -11 -65 -8 -861
-279 -1602 -817 -2235 -90 -106 -334 -346 -434 -426 -514 -413 -1096 -660
-1745 -741 -197 -25 -628 -25 -815 0 -600 80 -1123 286 -1589 625 -186 135
-412 342 -572 524 -262 297 -495 696 -632 1083 -127 359 -185 678 -196 1085
l-6 225 -10 -120z"/>
</g>
</svg>
